<?xml version="1.0" encoding="UTF-8"?>
<!DOCTYPE svg PUBLIC "-//W3C//DTD SVG 1.1//EN" "http://www.w3.org/Graphics/SVG/1.1/DTD/svg11.dtd">
<!-- Creator: CorelDRAW X7 -->
<svg xmlns="http://www.w3.org/2000/svg" xml:space="preserve" width="70mm" height="70mm" version="1.1" style="shape-rendering:geometricPrecision; text-rendering:geometricPrecision; image-rendering:optimizeQuality; fill-rule:evenodd; clip-rule:evenodd"
viewBox="0 0 7000 7000"
 xmlns:xlink="http://www.w3.org/1999/xlink">
 <defs>
  <style type="text/css">
   <![CDATA[
    .str0 {stroke:#5B7877;stroke-width:150;stroke-opacity:0.800000}
    .str2 {stroke:#FEFEFE;stroke-width:50}
    .str1 {stroke:#EEEEEF;stroke-width:7.62}
    .fil3 {fill:none}
    .fil2 {fill:none;fill-rule:nonzero}
    .fil1 {fill:#FEFEFE;fill-rule:nonzero}
    .fil0 {fill:#B9CCBC;fill-opacity:0.800000}
   ]]>
  </style>
 </defs>
 <g id="图层_x0020_1">
  <metadata id="CorelCorpID_0Corel-Layer"/>
  <path class="fil0 str0" d="M3487 646c1578,0 2857,1279 2857,2857 0,1579 -1279,2858 -2857,2858 -1579,0 -2858,-1279 -2858,-2858 0,-1578 1279,-2857 2858,-2857z"/>
  <path class="fil1" d="M2463 3555c0,41 -5,79 -16,114 -12,34 -28,63 -51,87 -22,24 -51,42 -87,56 -35,13 -77,20 -125,20l-26 0c-48,0 -90,-7 -126,-20 -36,-14 -65,-32 -87,-56 -23,-24 -39,-53 -50,-87 -11,-35 -16,-73 -16,-114l0 -102c0,-42 5,-81 16,-115 11,-34 27,-63 50,-87 22,-25 51,-43 87,-56 36,-13 78,-20 126,-20l26 0c48,0 90,7 125,20 36,13 65,31 87,56 23,24 39,53 51,87 11,34 16,73 16,115l0 102zm-478 23c0,56 12,98 37,127 25,28 66,42 124,42l50 0c58,0 100,-14 124,-42 25,-29 37,-71 37,-127l0 -149c0,-57 -12,-99 -37,-127 -24,-28 -66,-42 -124,-42l-50 0c-58,0 -99,14 -124,42 -25,28 -37,70 -37,127l0 149z"/>
  <polygon id="1" class="fil1" points="2587,3821 2587,3716 2693,3716 2693,3821 "/>
  <path id="2" class="fil1" d="M3007 3558c-63,0 -111,-12 -144,-37 -33,-24 -49,-69 -49,-135l0 -45c0,-62 20,-105 60,-129 40,-25 97,-37 169,-37l36 0c96,0 164,20 205,58 41,39 61,102 61,188l0 123c0,42 -5,80 -15,114 -11,35 -27,64 -50,88 -22,24 -51,43 -86,56 -36,13 -78,19 -128,19l-233 0 0 -84 246 0c62,0 105,-14 131,-42 25,-28 38,-71 38,-128l0 -9 -241 0zm-5 -85l246 0 0 -75c0,-55 -12,-91 -36,-110 -23,-19 -63,-28 -120,-28l-65 0c-46,0 -77,7 -95,19 -17,13 -25,32 -25,57l0 61c0,24 6,43 19,56 12,14 38,20 76,20z"/>
  <path id="3" class="fil1" d="M3664 3558c-64,0 -112,-12 -145,-37 -33,-24 -49,-69 -49,-135l0 -45c0,-62 20,-105 60,-129 41,-25 97,-37 169,-37l37 0c95,0 163,20 204,58 41,39 61,102 61,188l0 123c0,42 -5,80 -15,114 -11,35 -27,64 -49,88 -23,24 -52,43 -87,56 -36,13 -78,19 -128,19l-233 0 0 -84 246 0c62,0 106,-14 131,-42 25,-28 38,-71 38,-128l0 -9 -240 0zm-5 -85l245 0 0 -75c0,-55 -12,-91 -36,-110 -23,-19 -63,-28 -120,-28l-65 0c-46,0 -77,7 -94,19 -18,13 -26,32 -26,57l0 61c0,24 6,43 19,56 13,14 38,20 77,20z"/>
  <path id="4" class="fil1" d="M5094 3737l0 84 -280 0c-49,0 -92,-6 -128,-19 -35,-13 -64,-32 -86,-56 -23,-24 -39,-53 -50,-88 -10,-34 -15,-72 -15,-114l0 -80c0,-42 5,-81 15,-115 11,-34 27,-63 50,-87 22,-25 51,-43 86,-56 36,-13 79,-20 128,-20l276 0 0 85 -288 0c-59,0 -101,14 -125,42 -24,28 -36,70 -36,127l0 127c0,57 12,100 36,128 24,28 66,42 125,42l292 0z"/>
  <path id="5" class="fil2 str1" d="M2463 3555c0,41 -5,79 -16,114 -12,34 -28,63 -51,87 -22,24 -51,42 -87,56 -35,13 -77,20 -125,20l-26 0c-48,0 -90,-7 -126,-20 -36,-14 -65,-32 -87,-56 -23,-24 -39,-53 -50,-87 -11,-35 -16,-73 -16,-114l0 -102c0,-42 5,-81 16,-115 11,-34 27,-63 50,-87 22,-25 51,-43 87,-56 36,-13 78,-20 126,-20l26 0c48,0 90,7 125,20 36,13 65,31 87,56 23,24 39,53 51,87 11,34 16,73 16,115l0 102zm-478 23c0,56 12,98 37,127 25,28 66,42 124,42l50 0c58,0 100,-14 124,-42 25,-29 37,-71 37,-127l0 -149c0,-57 -12,-99 -37,-127 -24,-28 -66,-42 -124,-42l-50 0c-58,0 -99,14 -124,42 -25,28 -37,70 -37,127l0 149z"/>
  <polygon id="6" class="fil2 str1" points="2587,3821 2587,3716 2693,3716 2693,3821 "/>
  <path id="7" class="fil2 str1" d="M3007 3558c-63,0 -111,-12 -144,-37 -33,-24 -49,-69 -49,-135l0 -45c0,-62 20,-105 60,-129 40,-25 97,-37 169,-37l36 0c96,0 164,20 205,58 41,39 61,102 61,188l0 123c0,42 -5,80 -15,114 -11,35 -27,64 -50,88 -22,24 -51,43 -86,56 -36,13 -78,19 -128,19l-233 0 0 -84 246 0c62,0 105,-14 131,-42 25,-28 38,-71 38,-128l0 -9 -241 0zm-5 -85l246 0 0 -75c0,-55 -12,-91 -36,-110 -23,-19 -63,-28 -120,-28l-65 0c-46,0 -77,7 -95,19 -17,13 -25,32 -25,57l0 61c0,24 6,43 19,56 12,14 38,20 76,20z"/>
  <path id="8" class="fil2 str1" d="M3664 3558c-64,0 -112,-12 -145,-37 -33,-24 -49,-69 -49,-135l0 -45c0,-62 20,-105 60,-129 41,-25 97,-37 169,-37l37 0c95,0 163,20 204,58 41,39 61,102 61,188l0 123c0,42 -5,80 -15,114 -11,35 -27,64 -49,88 -23,24 -52,43 -87,56 -36,13 -78,19 -128,19l-233 0 0 -84 246 0c62,0 106,-14 131,-42 25,-28 38,-71 38,-128l0 -9 -240 0zm-5 -85l245 0 0 -75c0,-55 -12,-91 -36,-110 -23,-19 -63,-28 -120,-28l-65 0c-46,0 -77,7 -94,19 -18,13 -26,32 -26,57l0 61c0,24 6,43 19,56 13,14 38,20 77,20z"/>
  <path id="9" class="fil2 str1" d="M5094 3737l0 84 -280 0c-49,0 -92,-6 -128,-19 -35,-13 -64,-32 -86,-56 -23,-24 -39,-53 -50,-88 -10,-34 -15,-72 -15,-114l0 -80c0,-42 5,-81 15,-115 11,-34 27,-63 50,-87 22,-25 51,-43 86,-56 36,-13 79,-20 128,-20l276 0 0 85 -288 0c-59,0 -101,14 -125,42 -24,28 -36,70 -36,127l0 127c0,57 12,100 36,128 24,28 66,42 125,42l292 0z"/>
  <circle class="fil3 str2" cx="4309" cy="3049" r="119"/>
 </g>
</svg>
