<?xml version="1.0" encoding="UTF-8"?>
<!DOCTYPE svg PUBLIC "-//W3C//DTD SVG 1.1//EN" "http://www.w3.org/Graphics/SVG/1.1/DTD/svg11.dtd">
<!-- Creator: CorelDRAW X7 -->
<svg xmlns="http://www.w3.org/2000/svg" xml:space="preserve" width="70mm" height="70mm" version="1.1" style="shape-rendering:geometricPrecision; text-rendering:geometricPrecision; image-rendering:optimizeQuality; fill-rule:evenodd; clip-rule:evenodd"
viewBox="0 0 7000 7000"
 xmlns:xlink="http://www.w3.org/1999/xlink">
 <defs>
  <style type="text/css">
   <![CDATA[
    .str0 {stroke:#5FA776;stroke-width:150;stroke-opacity:0.800000}
    .str1 {stroke:#EEEEEF;stroke-width:7.62}
    .fil2 {fill:none;fill-rule:nonzero}
    .fil1 {fill:#FEFEFE;fill-rule:nonzero}
    .fil0 {fill:#80CBB7;fill-opacity:0.800000}
   ]]>
  </style>
 </defs>
 <g id="图层_x0020_1">
  <metadata id="CorelCorpID_0Corel-Layer"/>
  <g id="_1963326374464">
   <path class="fil0 str0" d="M3487 646c1578,0 2857,1279 2857,2857 0,1579 -1279,2858 -2857,2858 -1579,0 -2858,-1279 -2858,-2858 0,-1578 1279,-2857 2858,-2857z"/>
   <path class="fil1" d="M2210 3815l0 -84 192 0 0 -438c0,-9 -2,-16 -6,-21 -4,-5 -10,-7 -19,-7l-147 0 0 -85 162 0c38,0 66,10 82,28 17,19 26,47 26,84l0 439 169 0 0 84 -459 0z"/>
   <path id="1" class="fil1" d="M2840 3690c-38,0 -65,-8 -81,-26 -16,-17 -25,-38 -25,-63 0,-15 4,-30 10,-44 7,-14 17,-29 31,-45l219 -251c29,-33 54,-57 76,-71 21,-14 45,-21 70,-21l6 0c33,0 59,11 77,31 18,20 27,52 27,96l0 308 100 0 0 86 -100 0 0 125 -97 0 0 -125 -313 0zm21 -86l292 0 0 -320c0,-9 -2,-16 -5,-21 -3,-4 -9,-6 -17,-6 -7,0 -13,2 -19,6 -5,4 -10,10 -16,16l-247 280c-5,5 -8,9 -10,13 -2,3 -3,7 -3,12 0,6 2,11 6,15 4,3 10,5 19,5z"/>
   <path id="2" class="fil1" d="M3634 3552c-63,0 -111,-12 -144,-37 -33,-24 -50,-69 -50,-135l0 -45c0,-62 21,-105 61,-129 40,-24 97,-37 169,-37l36 0c96,0 164,20 205,58 41,39 61,102 61,188l0 123c0,42 -5,80 -15,114 -11,35 -27,64 -50,88 -22,24 -51,43 -86,56 -36,13 -79,19 -128,19l-233 0 0 -84 245 0c63,0 106,-14 132,-42 25,-28 38,-71 38,-128l0 -9 -241 0zm-5 -85l246 0 0 -75c0,-55 -12,-91 -36,-110 -23,-19 -64,-28 -120,-28l-65 0c-46,0 -77,7 -95,20 -17,13 -25,31 -25,56l0 61c0,24 6,43 19,56 12,14 38,20 76,20z"/>
   <path id="3" class="fil1" d="M4112 3355c0,-43 11,-80 33,-111 22,-30 53,-45 95,-45 38,0 69,14 94,41 25,27 38,67 38,119 0,51 -13,91 -38,119 -25,27 -57,41 -94,41 -36,0 -67,-14 -91,-41 -25,-27 -37,-68 -37,-123zm130 -104c-19,0 -34,8 -46,24 -13,15 -19,45 -19,87 0,39 6,66 19,82 12,16 28,23 46,23 18,0 34,-7 46,-23 13,-16 19,-45 19,-88 0,-39 -7,-66 -19,-82 -12,-15 -28,-23 -46,-23zm0 586l331 -638 60 0 -329 638 -62 0zm261 -164c0,-43 11,-80 33,-110 22,-31 53,-46 95,-46 38,0 70,14 95,41 25,27 37,67 37,120 0,51 -13,90 -38,118 -25,28 -56,41 -94,41 -36,0 -67,-13 -91,-41 -25,-27 -37,-68 -37,-123zm130 -104c-19,0 -34,8 -46,24 -13,16 -19,45 -19,88 0,38 6,65 19,81 12,16 27,24 46,24 19,0 34,-8 46,-24 13,-16 19,-45 19,-87 0,-39 -6,-67 -19,-82 -12,-16 -27,-24 -46,-24z"/>
   <path id="4" class="fil2 str1" d="M2210 3815l0 -84 192 0 0 -438c0,-9 -2,-16 -6,-21 -4,-5 -10,-7 -19,-7l-147 0 0 -85 162 0c38,0 66,10 82,28 17,19 26,47 26,84l0 439 169 0 0 84 -459 0z"/>
   <path id="5" class="fil2 str1" d="M2840 3690c-38,0 -65,-8 -81,-26 -16,-17 -25,-38 -25,-63 0,-15 4,-30 10,-44 7,-14 17,-29 31,-45l219 -251c29,-33 54,-57 76,-71 21,-14 45,-21 70,-21l6 0c33,0 59,11 77,31 18,20 27,52 27,96l0 308 100 0 0 86 -100 0 0 125 -97 0 0 -125 -313 0zm21 -86l292 0 0 -320c0,-9 -2,-16 -5,-21 -3,-4 -9,-6 -17,-6 -7,0 -13,2 -19,6 -5,4 -10,10 -16,16l-247 280c-5,5 -8,9 -10,13 -2,3 -3,7 -3,12 0,6 2,11 6,15 4,3 10,5 19,5z"/>
   <path id="6" class="fil2 str1" d="M3634 3552c-63,0 -111,-12 -144,-37 -33,-24 -50,-69 -50,-135l0 -45c0,-62 21,-105 61,-129 40,-24 97,-37 169,-37l36 0c96,0 164,20 205,58 41,39 61,102 61,188l0 123c0,42 -5,80 -15,114 -11,35 -27,64 -50,88 -22,24 -51,43 -86,56 -36,13 -79,19 -128,19l-233 0 0 -84 245 0c63,0 106,-14 132,-42 25,-28 38,-71 38,-128l0 -9 -241 0zm-5 -85l246 0 0 -75c0,-55 -12,-91 -36,-110 -23,-19 -64,-28 -120,-28l-65 0c-46,0 -77,7 -95,20 -17,13 -25,31 -25,56l0 61c0,24 6,43 19,56 12,14 38,20 76,20z"/>
   <path id="7" class="fil2 str1" d="M4112 3355c0,-43 11,-80 33,-111 22,-30 53,-45 95,-45 38,0 69,14 94,41 25,27 38,67 38,119 0,51 -13,91 -38,119 -25,27 -57,41 -94,41 -36,0 -67,-14 -91,-41 -25,-27 -37,-68 -37,-123zm130 -104c-19,0 -34,8 -46,24 -13,15 -19,45 -19,87 0,39 6,66 19,82 12,16 28,23 46,23 18,0 34,-7 46,-23 13,-16 19,-45 19,-88 0,-39 -7,-66 -19,-82 -12,-15 -28,-23 -46,-23zm0 586l331 -638 60 0 -329 638 -62 0zm261 -164c0,-43 11,-80 33,-110 22,-31 53,-46 95,-46 38,0 70,14 95,41 25,27 37,67 37,120 0,51 -13,90 -38,118 -25,28 -56,41 -94,41 -36,0 -67,-13 -91,-41 -25,-27 -37,-68 -37,-123zm130 -104c-19,0 -34,8 -46,24 -13,16 -19,45 -19,88 0,38 6,65 19,81 12,16 27,24 46,24 19,0 34,-8 46,-24 13,-16 19,-45 19,-87 0,-39 -6,-67 -19,-82 -12,-16 -27,-24 -46,-24z"/>
  </g>
 </g>
</svg>
