<?xml version="1.0" encoding="UTF-8"?>
<!DOCTYPE svg PUBLIC "-//W3C//DTD SVG 1.1//EN" "http://www.w3.org/Graphics/SVG/1.1/DTD/svg11.dtd">
<!-- Creator: CorelDRAW X7 -->
<svg xmlns="http://www.w3.org/2000/svg" xml:space="preserve" width="70mm" height="70mm" version="1.1" style="shape-rendering:geometricPrecision; text-rendering:geometricPrecision; image-rendering:optimizeQuality; fill-rule:evenodd; clip-rule:evenodd"
viewBox="0 0 7000 7000"
 xmlns:xlink="http://www.w3.org/1999/xlink">
 <defs>
  <style type="text/css">
   <![CDATA[
    .str0 {stroke:#7EA6B5;stroke-width:150;stroke-opacity:0.800000}
    .str1 {stroke:#EEEEEF;stroke-width:7.62}
    .fil2 {fill:none;fill-rule:nonzero}
    .fil1 {fill:#FEFEFE;fill-rule:nonzero}
    .fil0 {fill:#91D0D4;fill-opacity:0.800000}
   ]]>
  </style>
 </defs>
 <g id="图层_x0020_1">
  <metadata id="CorelCorpID_0Corel-Layer"/>
  <path class="fil0 str0" d="M3487 646c1578,0 2857,1279 2857,2857 0,1579 -1279,2858 -2857,2858 -1579,0 -2858,-1279 -2858,-2858 0,-1578 1279,-2857 2858,-2857z"/>
  <path class="fil1" d="M3430 3453l-112 0 320 -507c3,-5 6,-9 7,-14 2,-4 3,-8 3,-13 0,-5 -2,-10 -6,-13 -4,-2 -9,-4 -17,-4l-405 0 0 -84 421 0c36,0 63,7 79,22 17,16 25,37 25,65 0,13 -3,28 -8,44 -6,16 -14,33 -25,49l-282 455z"/>
  <path id="1" class="fil1" d="M1787 3960c0,24 -4,46 -10,66 -6,20 -16,37 -29,51 -13,14 -30,25 -51,33 -21,7 -45,11 -73,11l-50 0c-28,0 -53,-4 -73,-11 -21,-8 -38,-19 -51,-33 -13,-14 -23,-31 -29,-51 -7,-20 -10,-42 -10,-66l0 -60c0,-24 3,-47 10,-67 6,-19 16,-37 29,-51 13,-14 30,-25 51,-32 20,-8 45,-12 73,-12l50 0c28,0 52,4 73,12 21,7 38,18 51,32 13,14 23,32 29,51 6,20 10,43 10,67l0 60zm-314 13c0,33 7,58 22,74 14,17 38,25 72,25l64 0c34,0 58,-8 72,-25 15,-16 22,-41 22,-74l0 -86c0,-34 -7,-58 -22,-75 -14,-16 -38,-24 -72,-24l-64 0c-34,0 -58,8 -72,24 -15,17 -22,41 -22,75l0 86z"/>
  <polygon id="2" class="fil1" points="1884,3745 1938,3745 1938,4115 1884,4115 "/>
  <path id="3" class="fil1" d="M2171 4040c1,2 3,4 4,6 2,1 4,2 5,2 2,0 4,-1 5,-2 2,-2 3,-4 4,-6l89 -221 60 0 -127 303c-11,25 -24,43 -40,53 -16,9 -38,14 -64,14l-68 0 0 -45 67 0c16,0 28,-3 35,-8 8,-5 14,-12 18,-21l9 -24 -2 0c-9,0 -18,-3 -26,-8 -8,-5 -16,-15 -22,-28l-107 -236 62 0 98 221z"/>
  <path id="4" class="fil1" d="M2406 4115l0 -296 342 0c37,0 64,9 81,28 17,19 26,43 26,72l0 196 -54 0 0 -198c0,-19 -4,-31 -12,-38 -7,-7 -20,-11 -37,-11l-95 0 0 247 -54 0 0 -247 -143 0 0 247 -54 0z"/>
  <path id="5" class="fil1" d="M2965 4189l0 -370 165 0c39,0 69,11 90,33 22,22 32,54 32,95l0 40c0,41 -10,73 -32,95 -21,22 -51,33 -90,33l-111 0 0 74 -54 0zm160 -321l-106 0 0 198 106 0c26,0 44,-5 54,-16 11,-11 16,-29 16,-56l0 -55c0,-26 -5,-44 -16,-55 -10,-10 -28,-16 -54,-16z"/>
  <path id="6" class="fil1" d="M3409 3778l-55 0 0 -53 55 0 0 53zm-55 337l0 -296 55 0 0 296 -55 0z"/>
  <path id="7" class="fil1" d="M3641 3866c-26,0 -45,5 -56,15 -12,10 -17,28 -17,54l0 63c0,27 5,45 17,55 11,10 30,15 56,15l128 0 0 47 -131 0c-38,0 -68,-10 -92,-31 -23,-21 -35,-52 -35,-93l0 -48c0,-41 12,-72 35,-93 24,-21 54,-31 92,-31l131 0 0 47 -128 0z"/>
  <path id="8" class="fil1" d="M3969 4189l0 -370 165 0c39,0 69,11 90,33 22,22 32,54 32,95l0 40c0,41 -10,73 -32,95 -21,22 -51,33 -90,33l-111 0 0 74 -54 0zm160 -321l-106 0 0 198 106 0c26,0 44,-5 55,-16 10,-11 15,-29 15,-56l0 -55c0,-26 -5,-44 -15,-55 -11,-10 -29,-16 -55,-16z"/>
  <path id="9" class="fil1" d="M4651 3943l0 48c0,41 -12,73 -34,96 -23,23 -56,35 -100,35l-37 0c-46,0 -80,-12 -102,-35 -21,-23 -32,-55 -32,-96l0 -48c0,-41 11,-73 32,-96 22,-23 56,-35 102,-35l37 0c44,0 77,12 100,35 22,23 34,55 34,96zm-57 -8c0,-26 -5,-45 -15,-57 -10,-13 -29,-19 -55,-19l-52 0c-25,0 -42,6 -53,19 -11,12 -16,31 -16,57l0 64c0,26 5,45 16,57 11,13 28,19 53,19l52 0c26,0 45,-6 55,-19 10,-12 15,-31 15,-57l0 -64z"/>
  <path id="10" class="fil1" d="M5045 3943l0 48c0,41 -11,73 -34,96 -22,23 -56,35 -100,35l-37 0c-46,0 -79,-12 -101,-35 -22,-23 -32,-55 -32,-96l0 -48c0,-41 10,-73 32,-96 22,-23 55,-35 101,-35l37 0c44,0 78,12 100,35 23,23 34,55 34,96zm-56 -8c0,-26 -5,-45 -16,-57 -10,-13 -28,-19 -55,-19l-51 0c-25,0 -43,6 -54,19 -10,12 -16,31 -16,57l0 64c0,26 6,45 16,57 11,13 29,19 54,19l51 0c27,0 45,-6 55,-19 11,-12 16,-31 16,-57l0 -64z"/>
  <polygon id="11" class="fil1" points="5148,3745 5202,3745 5202,4115 5148,4115 "/>
  <path id="12" class="fil1" d="M5455 3997l-72 -15c-28,-6 -50,-15 -65,-28 -16,-13 -24,-31 -24,-54 0,-24 9,-44 27,-59 19,-15 46,-22 82,-22l149 0 0 47 -159 0c-17,0 -28,3 -34,9 -6,6 -9,14 -9,22 0,10 3,17 9,22 7,6 18,10 35,13l71 15c31,7 55,16 71,28 17,12 26,30 26,55 0,25 -9,46 -28,62 -19,15 -50,23 -92,23l-143 0 0 -47 156 0c20,0 34,-3 42,-9 7,-7 11,-15 11,-25 0,-10 -4,-18 -12,-23 -7,-5 -21,-10 -41,-14z"/>
  <path id="13" class="fil2 str1" d="M3430 3453l-112 0 320 -507c3,-5 6,-9 7,-14 2,-4 3,-8 3,-13 0,-5 -2,-10 -6,-13 -4,-2 -9,-4 -17,-4l-405 0 0 -84 421 0c36,0 63,7 79,22 17,16 25,37 25,65 0,13 -3,28 -8,44 -6,16 -14,33 -25,49l-282 455z"/>
  <path id="14" class="fil2 str1" d="M1787 3960c0,24 -4,46 -10,66 -6,20 -16,37 -29,51 -13,14 -30,25 -51,33 -21,7 -45,11 -73,11l-50 0c-28,0 -53,-4 -73,-11 -21,-8 -38,-19 -51,-33 -13,-14 -23,-31 -29,-51 -7,-20 -10,-42 -10,-66l0 -60c0,-24 3,-47 10,-67 6,-19 16,-37 29,-51 13,-14 30,-25 51,-32 20,-8 45,-12 73,-12l50 0c28,0 52,4 73,12 21,7 38,18 51,32 13,14 23,32 29,51 6,20 10,43 10,67l0 60zm-314 13c0,33 7,58 22,74 14,17 38,25 72,25l64 0c34,0 58,-8 72,-25 15,-16 22,-41 22,-74l0 -86c0,-34 -7,-58 -22,-75 -14,-16 -38,-24 -72,-24l-64 0c-34,0 -58,8 -72,24 -15,17 -22,41 -22,75l0 86z"/>
  <polygon id="15" class="fil2 str1" points="1884,3745 1938,3745 1938,4115 1884,4115 "/>
  <path id="16" class="fil2 str1" d="M2171 4040c1,2 3,4 4,6 2,1 4,2 5,2 2,0 4,-1 5,-2 2,-2 3,-4 4,-6l89 -221 60 0 -127 303c-11,25 -24,43 -40,53 -16,9 -38,14 -64,14l-68 0 0 -45 67 0c16,0 28,-3 35,-8 8,-5 14,-12 18,-21l9 -24 -2 0c-9,0 -18,-3 -26,-8 -8,-5 -16,-15 -22,-28l-107 -236 62 0 98 221z"/>
  <path id="17" class="fil2 str1" d="M2406 4115l0 -296 342 0c37,0 64,9 81,28 17,19 26,43 26,72l0 196 -54 0 0 -198c0,-19 -4,-31 -12,-38 -7,-7 -20,-11 -37,-11l-95 0 0 247 -54 0 0 -247 -143 0 0 247 -54 0z"/>
  <path id="18" class="fil2 str1" d="M2965 4189l0 -370 165 0c39,0 69,11 90,33 22,22 32,54 32,95l0 40c0,41 -10,73 -32,95 -21,22 -51,33 -90,33l-111 0 0 74 -54 0zm160 -321l-106 0 0 198 106 0c26,0 44,-5 54,-16 11,-11 16,-29 16,-56l0 -55c0,-26 -5,-44 -16,-55 -10,-10 -28,-16 -54,-16z"/>
  <path id="19" class="fil2 str1" d="M3409 3778l-55 0 0 -53 55 0 0 53zm-55 337l0 -296 55 0 0 296 -55 0z"/>
  <path id="20" class="fil2 str1" d="M3641 3866c-26,0 -45,5 -56,15 -12,10 -17,28 -17,54l0 63c0,27 5,45 17,55 11,10 30,15 56,15l128 0 0 47 -131 0c-38,0 -68,-10 -92,-31 -23,-21 -35,-52 -35,-93l0 -48c0,-41 12,-72 35,-93 24,-21 54,-31 92,-31l131 0 0 47 -128 0z"/>
  <path id="21" class="fil2 str1" d="M3969 4189l0 -370 165 0c39,0 69,11 90,33 22,22 32,54 32,95l0 40c0,41 -10,73 -32,95 -21,22 -51,33 -90,33l-111 0 0 74 -54 0zm160 -321l-106 0 0 198 106 0c26,0 44,-5 55,-16 10,-11 15,-29 15,-56l0 -55c0,-26 -5,-44 -15,-55 -11,-10 -29,-16 -55,-16z"/>
  <path id="22" class="fil2 str1" d="M4651 3943l0 48c0,41 -12,73 -34,96 -23,23 -56,35 -100,35l-37 0c-46,0 -80,-12 -102,-35 -21,-23 -32,-55 -32,-96l0 -48c0,-41 11,-73 32,-96 22,-23 56,-35 102,-35l37 0c44,0 77,12 100,35 22,23 34,55 34,96zm-57 -8c0,-26 -5,-45 -15,-57 -10,-13 -29,-19 -55,-19l-52 0c-25,0 -42,6 -53,19 -11,12 -16,31 -16,57l0 64c0,26 5,45 16,57 11,13 28,19 53,19l52 0c26,0 45,-6 55,-19 10,-12 15,-31 15,-57l0 -64z"/>
  <path id="23" class="fil2 str1" d="M5045 3943l0 48c0,41 -11,73 -34,96 -22,23 -56,35 -100,35l-37 0c-46,0 -79,-12 -101,-35 -22,-23 -32,-55 -32,-96l0 -48c0,-41 10,-73 32,-96 22,-23 55,-35 101,-35l37 0c44,0 78,12 100,35 23,23 34,55 34,96zm-56 -8c0,-26 -5,-45 -16,-57 -10,-13 -28,-19 -55,-19l-51 0c-25,0 -43,6 -54,19 -10,12 -16,31 -16,57l0 64c0,26 6,45 16,57 11,13 29,19 54,19l51 0c27,0 45,-6 55,-19 11,-12 16,-31 16,-57l0 -64z"/>
  <polygon id="24" class="fil2 str1" points="5148,3745 5202,3745 5202,4115 5148,4115 "/>
  <path id="25" class="fil2 str1" d="M5455 3997l-72 -15c-28,-6 -50,-15 -65,-28 -16,-13 -24,-31 -24,-54 0,-24 9,-44 27,-59 19,-15 46,-22 82,-22l149 0 0 47 -159 0c-17,0 -28,3 -34,9 -6,6 -9,14 -9,22 0,10 3,17 9,22 7,6 18,10 35,13l71 15c31,7 55,16 71,28 17,12 26,30 26,55 0,25 -9,46 -28,62 -19,15 -50,23 -92,23l-143 0 0 -47 156 0c20,0 34,-3 42,-9 7,-7 11,-15 11,-25 0,-10 -4,-18 -12,-23 -7,-5 -21,-10 -41,-14z"/>
 </g>
</svg>
